<svg width="24" height="24" viewBox="0 0 24 24" fill="none" xmlns="http://www.w3.org/2000/svg">
<g id="Duotone/ArrowsCounterClockwise">
<path id="Vector" d="M7.48126 9.34766H2.98126V4.84766" stroke="#5F6C72" stroke-width="1.5" stroke-linecap="round" stroke-linejoin="round"/>
<path id="Vector_2" d="M17.8313 6.16787C17.0659 5.40139 16.1569 4.79331 15.1563 4.37843C14.1558 3.96355 13.0832 3.75 12 3.75C10.9168 3.75 9.84427 3.96355 8.84369 4.37843C7.8431 4.79331 6.93413 5.40139 6.16876 6.16787L2.98126 9.346" stroke="#5F6C72" stroke-width="1.5" stroke-linecap="round" stroke-linejoin="round"/>
<path id="Vector_3" d="M16.5187 14.6523H21.0187V19.1523" stroke="#5F6C72" stroke-width="1.5" stroke-linecap="round" stroke-linejoin="round"/>
<path id="Vector_4" d="M6.16876 17.8305C6.93413 18.597 7.8431 19.205 8.84368 19.6199C9.84427 20.0348 10.9168 20.2483 12 20.2483C13.0832 20.2483 14.1558 20.0348 15.1563 19.6199C16.1569 19.205 17.0659 18.597 17.8313 17.8305L21.0188 14.6523" stroke="#5F6C72" stroke-width="1.5" stroke-linecap="round" stroke-linejoin="round"/>
</g>
</svg>
