<svg width="16" height="16" viewBox="0 0 16 16" fill="none" xmlns="http://www.w3.org/2000/svg">
<g id="Instagram" clip-path="url(#clip0_2512_7614)">
<path id="Vector" d="M5.60062 8.00078C5.60062 6.67535 6.67485 5.60059 8.00034 5.60059C9.32582 5.60059 10.4006 6.67535 10.4006 8.00078C10.4006 9.32621 9.32582 10.401 8.00034 10.401C6.67485 10.401 5.60062 9.32621 5.60062 8.00078ZM4.30308 8.00078C4.30308 10.0427 5.95833 11.6979 8.00034 11.6979C10.0423 11.6979 11.6976 10.0427 11.6976 8.00078C11.6976 5.95886 10.0423 4.30367 8.00034 4.30367C5.95833 4.30367 4.30313 5.95875 4.30313 8.00078H4.30308ZM10.98 4.15708C10.9799 4.32796 11.0305 4.49502 11.1254 4.63715C11.2203 4.77927 11.3552 4.89006 11.5131 4.95552C11.6709 5.02098 11.8446 5.03816 12.0122 5.00489C12.1799 4.97162 12.3339 4.88939 12.4547 4.76861C12.5756 4.64782 12.658 4.4939 12.6914 4.32632C12.7248 4.15873 12.7078 3.985 12.6424 3.8271C12.5771 3.6692 12.4664 3.53422 12.3243 3.43922C12.1823 3.34423 12.0153 3.29349 11.8444 3.29342H11.844C11.615 3.29353 11.3953 3.38454 11.2333 3.54648C11.0713 3.70841 10.9802 3.92802 10.98 4.15708ZM5.09142 13.8615C4.38942 13.8295 4.00786 13.7126 3.7543 13.6138C3.41813 13.4829 3.17828 13.3271 2.92609 13.0752C2.67391 12.8234 2.51781 12.5838 2.38751 12.2476C2.28867 11.9942 2.17173 11.6125 2.13982 10.9106C2.10491 10.1516 2.09794 9.92364 2.09794 8.0009C2.09794 6.07815 2.10549 5.8508 2.13982 5.09123C2.17179 4.38926 2.28959 4.00835 2.38751 3.75416C2.51838 3.41801 2.67425 3.17816 2.92609 2.92599C3.17793 2.67382 3.41756 2.51772 3.7543 2.38743C4.00775 2.28859 4.38942 2.17166 5.09142 2.13975C5.85039 2.10485 6.07838 2.09788 8.00034 2.09788C9.92229 2.09788 10.1505 2.10531 10.9101 2.13987C11.6121 2.17183 11.993 2.28963 12.2472 2.38755C12.5834 2.51784 12.8233 2.67428 13.0754 2.92611C13.3276 3.17793 13.4832 3.41813 13.614 3.75428C13.7129 4.00772 13.8298 4.38938 13.8617 5.09135C13.8966 5.85092 13.9036 6.07827 13.9036 8.00101C13.9036 9.92376 13.8966 10.1511 13.8617 10.9107C13.8297 11.6126 13.7122 11.9942 13.614 12.2477C13.4832 12.5839 13.3273 12.8237 13.0754 13.0753C12.8236 13.3269 12.5834 13.483 12.2472 13.6139C11.9938 13.7127 11.6121 13.8297 10.9101 13.8616C10.1511 13.8965 9.92316 13.9035 8.00034 13.9035C6.07751 13.9035 5.85016 13.8965 5.09142 13.8616V13.8615ZM5.0318 0.844384C4.26529 0.87929 3.74151 1.00083 3.28409 1.17881C2.81066 1.36261 2.40934 1.6092 2.0086 2.00929C1.60786 2.40938 1.3619 2.81073 1.17809 3.28472C1.0001 3.74241 0.878561 4.26588 0.843654 5.03237C0.808171 5.80006 0.800049 6.04549 0.800049 8.00078C0.800049 9.95607 0.808171 10.2015 0.843654 10.9692C0.878561 11.7357 1.0001 12.2591 1.17809 12.7168C1.3619 13.1903 1.60792 13.5924 2.0086 13.9923C2.40928 14.3922 2.81008 14.6384 3.28409 14.8228C3.74237 15.0007 4.26529 15.1223 5.0318 15.1572C5.79993 15.1921 6.04497 15.2008 8.00034 15.2008C9.9557 15.2008 10.2011 15.1927 10.9689 15.1572C11.7354 15.1223 12.2589 15.0007 12.7166 14.8228C13.19 14.6384 13.5913 14.3924 13.9921 13.9923C14.3928 13.5922 14.6383 13.1903 14.8226 12.7168C15.0006 12.2591 15.1227 11.7357 15.157 10.9692C15.1919 10.2009 15.2 9.95607 15.2 8.00078C15.2 6.04549 15.1919 5.80006 15.157 5.03237C15.1221 4.26582 15.0006 3.74213 14.8226 3.28472C14.6383 2.81131 14.3922 2.41001 13.9921 2.00929C13.592 1.60856 13.19 1.36261 12.7172 1.17881C12.2589 1.00083 11.7354 0.878714 10.9694 0.844384C10.2016 0.809306 9.95628 0.800781 8.0012 0.800781C6.04612 0.800781 5.80022 0.808903 5.03209 0.844384" fill="white"/>
</g>
<defs>
<clipPath id="clip0_2512_7614">
<rect width="16" height="16" fill="white"/>
</clipPath>
</defs>
</svg>
