<svg width="16" height="16" viewBox="0 0 16 16" fill="none" xmlns="http://www.w3.org/2000/svg">
<g id="Reddit" clip-path="url(#clip0_2512_7608)">
<path id="Vector" d="M8 16C12.4183 16 16 12.4183 16 8C16 3.58172 12.4183 0 8 0C3.58172 0 0 3.58172 0 8C0 12.4183 3.58172 16 8 16Z" fill="white"/>
<path id="Vector_2" d="M13.3361 7.99915C13.3377 8.10875 13.3241 8.21815 13.2953 8.32395C13.2665 8.42975 13.2229 8.53116 13.1657 8.62476C13.1087 8.71836 13.0387 8.80356 12.9579 8.87776C12.8771 8.95196 12.7863 9.01436 12.6881 9.06316C12.6903 9.09236 12.6921 9.12176 12.6931 9.15116C12.6955 9.20981 12.6955 9.26852 12.6931 9.32716C12.6921 9.35656 12.6903 9.38596 12.6881 9.41516C12.6881 11.2072 10.6001 12.6632 8.02404 12.6632C5.44802 12.6632 3.36 11.2072 3.36 9.41516C3.3578 9.38596 3.356 9.35656 3.355 9.32716C3.3526 9.26852 3.3526 9.20981 3.355 9.15116C3.356 9.12176 3.3578 9.09236 3.36 9.06316C3.20615 8.99244 3.06951 8.88914 2.95952 8.7604C2.84953 8.63166 2.76883 8.48056 2.723 8.31755C2.67724 8.15448 2.6675 7.9834 2.69443 7.81618C2.72137 7.64896 2.78435 7.4896 2.879 7.34914C2.97357 7.20871 3.09756 7.09053 3.24237 7.00281C3.38718 6.91508 3.54934 6.85992 3.71761 6.84114C3.88589 6.82228 4.05627 6.84023 4.21692 6.89376C4.37758 6.94729 4.52467 7.03511 4.64801 7.15114C4.87698 6.99595 5.11688 6.85752 5.36582 6.73694C5.61482 6.61654 5.87223 6.51414 6.13603 6.43093C6.39983 6.34773 6.66943 6.28393 6.94244 6.23973C7.21544 6.19553 7.49144 6.17133 7.76804 6.16713L8.36005 3.3911C8.36665 3.3589 8.37965 3.3285 8.39825 3.3013C8.41665 3.2743 8.44045 3.2511 8.46785 3.2333C8.49545 3.2155 8.52625 3.2033 8.55865 3.1973C8.59085 3.1915 8.62405 3.1921 8.65605 3.1991L10.6161 3.59111C10.8139 3.2513 11.2291 3.1057 11.5957 3.2473C11.9623 3.3889 12.1719 3.77591 12.0899 4.16031C12.0081 4.54472 11.6589 4.81272 11.2665 4.79252C10.8739 4.77232 10.5541 4.46991 10.5121 4.07911L8.80005 3.71911L8.28005 6.21513C8.55325 6.22093 8.82585 6.24653 9.09545 6.29153C9.63535 6.38153 10.1594 6.54899 10.6515 6.78874C10.8972 6.90834 11.134 7.0455 11.3601 7.19914C11.5226 7.0431 11.7268 6.93745 11.9481 6.89494C12.1693 6.85228 12.3982 6.87458 12.6071 6.95914C12.816 7.04366 12.9959 7.18682 13.1253 7.37134C13.2547 7.55588 13.3279 7.77392 13.3361 7.99915ZM5.39682 9.10536C5.43722 9.20236 5.49602 9.29056 5.57042 9.36476C5.64462 9.43917 5.73282 9.49797 5.82983 9.53837C5.92692 9.57852 6.03096 9.59918 6.13603 9.59917C6.45963 9.59917 6.75123 9.40416 6.87523 9.10536C6.99904 8.80636 6.93043 8.46236 6.70163 8.23355C6.47283 8.00475 6.12883 7.93615 5.82983 8.05995C5.53102 8.18395 5.33602 8.47556 5.33602 8.79916C5.33602 8.90416 5.35662 9.00816 5.39682 9.10536ZM9.97886 11.0258C10.0199 10.9858 10.0433 10.9312 10.0441 10.874C10.0449 10.8166 10.0227 10.7614 9.98266 10.7204C9.94266 10.6794 9.88806 10.656 9.83086 10.6552C9.77346 10.6544 9.71826 10.6766 9.67206 10.7112C9.55176 10.7975 9.42437 10.8734 9.29126 10.9382C9.15813 11.003 9.01977 11.0564 8.87765 11.098C8.73565 11.1394 8.59025 11.1688 8.44325 11.1858C8.29605 11.2028 8.14785 11.2072 8.00004 11.1992C7.85244 11.2058 7.70444 11.1998 7.55784 11.1814C7.4112 11.1632 7.2664 11.1324 7.12504 11.0894C6.98344 11.0466 6.84603 10.9918 6.71383 10.9258C6.58163 10.8598 6.45523 10.7826 6.33603 10.6952C6.29463 10.6612 6.24203 10.6438 6.18843 10.6464C6.13483 10.649 6.08423 10.6716 6.04623 10.7094C6.00843 10.7474 5.98583 10.798 5.98323 10.8516C5.98063 10.9052 5.99803 10.9578 6.03203 10.9992C6.17263 11.1052 6.32203 11.1988 6.47863 11.2792C6.63523 11.3596 6.79863 11.4262 6.96664 11.4786C7.13464 11.531 7.30684 11.5688 7.48144 11.5918C7.65604 11.6146 7.83224 11.6224 8.00804 11.6152C8.18385 11.6224 8.36005 11.6146 8.53465 11.5918C8.88436 11.5458 9.22356 11.4401 9.53746 11.2792C9.69406 11.1988 9.84346 11.1052 9.98406 10.9992L9.97886 11.0258ZM9.83206 9.66317C9.94046 9.66437 10.0481 9.64337 10.1483 9.60177C10.2485 9.55997 10.3391 9.49837 10.4147 9.42057C10.4903 9.34276 10.5491 9.25036 10.5879 9.14896C10.6267 9.04768 10.6445 8.93954 10.6401 8.83116C10.6401 8.50756 10.4451 8.21595 10.1463 8.09195C9.84726 7.96815 9.50326 8.03675 9.27446 8.26555C9.04565 8.49436 8.97705 8.83836 9.10085 9.13736C9.22486 9.43617 9.51646 9.63117 9.84006 9.63117L9.83206 9.66317Z" fill="#1B6392"/>
</g>
<defs>
<clipPath id="clip0_2512_7608">
<rect width="16" height="16" fill="white"/>
</clipPath>
</defs>
</svg>
