<svg width="16" height="16" viewBox="0 0 16 16" fill="none" xmlns="http://www.w3.org/2000/svg">
<g id="Twitter">
<path id="Vector" d="M5.03184 14.5014C11.0699 14.5014 14.3718 9.49616 14.3718 5.15575C14.3718 5.0136 14.3689 4.87211 14.3625 4.73119C15.005 4.26602 15.5595 3.69005 16 3.03031C15.4118 3.29196 14.7789 3.46807 14.1149 3.54747C14.7926 3.14084 15.3129 2.49753 15.5584 1.73071C14.914 2.11321 14.2091 2.38285 13.4739 2.52801C12.8749 1.88955 12.0221 1.49023 11.0778 1.49023C9.26494 1.49023 7.79489 2.96122 7.79489 4.77442C7.79489 5.03221 7.82374 5.28287 7.88006 5.52338C5.15177 5.38602 2.73252 4.07898 1.11343 2.09155C0.821818 2.59282 0.668434 3.16252 0.668943 3.74247C0.668943 4.88206 1.24846 5.88805 2.12976 6.47661C1.60846 6.46068 1.0986 6.31979 0.643057 6.06579C0.642569 6.07958 0.642569 6.09301 0.642569 6.10775C0.642569 7.69846 1.77408 9.02662 3.27613 9.32756C2.99402 9.40444 2.70292 9.44331 2.41054 9.44314C2.19938 9.44314 1.99359 9.42235 1.79359 9.38394C2.21151 10.689 3.42335 11.6387 4.86013 11.6653C3.73659 12.5464 2.32127 13.0713 0.783024 13.0713C0.521349 13.0715 0.259888 13.0563 0 13.0258C1.45281 13.9575 3.17789 14.5012 5.032 14.5012" fill="white"/>
</g>
</svg>
